<svg height="48pt" viewBox="0 0 48 48" width="48pt" xmlns="http://www.w3.org/2000/svg" xmlns:xlink="http://www.w3.org/1999/xlink"><linearGradient id="a" gradientTransform="matrix(35.07 0 0 6.2 4.33 30.53)" gradientUnits="userSpaceOnUse" x1="0" x2=".907488" y1=".5" y2=".920078"><stop offset=".02173913043" stop-color="#00b1ff"/><stop offset=".83888397938" stop-color="#0072ff"/></linearGradient><linearGradient id="b" gradientTransform="matrix(46.4 0 0 42.837 .8 2.582)" gradientUnits="userSpaceOnUse" x1="0" x2=".907488" y1=".5" y2=".920078"><stop offset="0" stop-color="#00c4ff"/><stop offset=".83888397938" stop-color="#0072ff"/></linearGradient><path d="m37.9 30.53h1.5v3h-1.5-.64v3.2h-10.48v-3.2h-5.56v3.2h-10.48v-3.2h-4.91-1.5v-3h1.5 7.91v3.2h4.48v-3.2h11.56v3.2h4.48v-3.2z" fill="url(#a)"/><path d="m12.777 23.476c0-.59.479-1.069 1.069-1.069s1.069.479 1.069 1.069-.479 1.069-1.069 1.069-1.069-.479-1.069-1.069zm20.308 0c0-.59.479-1.069 1.069-1.069s1.069.479 1.069 1.069-.479 1.069-1.069 1.069-1.069-.479-1.069-1.069zm-9.619-1.069h1.068v4.275h-1.068zm-12.292 1.069c0-.706.278-1.39.78-1.892s1.186-.78 1.892-.78c.705 0 1.389.278 1.892.78.502.502.78 1.186.78 1.892 0 .705-.278 1.389-.78 1.892-.503.502-1.187.78-1.892.78-.706 0-1.39-.278-1.892-.78-.502-.503-.78-1.187-.78-1.892zm20.308 0c0-.706.278-1.39.78-1.892.503-.502 1.187-.78 1.892-.78.706 0 1.39.278 1.892.78s.78 1.186.78 1.892c0 .705-.278 1.389-.78 1.892-.502.502-1.186.78-1.892.78-.705 0-1.389-.278-1.892-.78-.502-.503-.78-1.187-.78-1.892zm-8.016-3.207h1.068c1.18 0 2.138.958 2.138 2.138v4.275c0 1.18-.958 2.138-2.138 2.138h-1.068c-1.18 0-2.138-.958-2.138-2.138v-4.275c0-1.18.958-2.138 2.138-2.138zm-14.43 3.207c0-1.272.502-2.501 1.411-3.399.898-.909 2.127-1.411 3.399-1.411s2.501.502 3.399 1.411c.908.898 1.411 2.127 1.411 3.399s-.503 2.501-1.411 3.399c-.898.908-2.127 1.411-3.399 1.411s-2.501-.503-3.399-1.411c-.909-.898-1.411-2.127-1.411-3.399zm20.308 0c0-1.272.503-2.501 1.411-3.399.898-.909 2.127-1.411 3.399-1.411s2.501.502 3.399 1.411c.909.898 1.411 2.127 1.411 3.399s-.502 2.501-1.411 3.399c-.898.908-2.127 1.411-3.399 1.411s-2.501-.503-3.399-1.411c-.908-.898-1.411-2.127-1.411-3.399zm-21.911 2.138c0 .884-.719 1.603-1.603 1.603-.885 0-1.604-.719-1.604-1.603v-4.682l-3.113-3.113c-.417-.418-.417-1.095 0-1.512l6.098-6.099c.418-.417 1.095-.417 1.512 0l1.767 1.767 3.121-1.251-.859-4.296c-.116-.578.235-1.225.783-1.444l5.806-2.318c.548-.219 1.259.002 1.586.493l1.79 2.681h2.566l1.79-2.681c.327-.491 1.038-.712 1.586-.493l5.806 2.318c.548.219.899.866.783 1.444l-.859 4.296 3.121 1.251 1.767-1.767c.417-.417 1.094-.417 1.512 0l6.098 6.099c.417.417.417 1.094 0 1.512l-3.113 3.113v13.232c0 .15-.022.3-.064.449-.246.866-.588 1.71-1.005 2.512-.406.78-.898 1.507-1.454 2.17-.566.695-1.208 1.315-1.913 1.87-.77.599-1.593 1.133-2.458 1.582-.374.193-.749.364-1.123.535-.406.171-.823.331-1.24.481-1.304.47-2.65.823-4.018 1.058-1.775.299-3.56.491-5.366.566-2.416.096-4.853-.032-7.247-.374-1.817-.267-3.58-.769-5.269-1.486-.909-.395-1.785-.855-2.619-1.389-.791-.502-1.528-1.069-2.212-1.7-.674-.63-1.294-1.314-1.85-2.041-.577-.77-1.09-1.582-1.528-2.426-.118-.225-.182-.481-.182-.738v-2.137-1.604h3.207v1.604 1.731c.31.567.673 1.112 1.058 1.635.438.578.93 1.123 1.475 1.614.545.513 1.133.962 1.753 1.358.684.438 1.411.823 2.159 1.143 1.432.61 2.929 1.037 4.468 1.262 2.202.32 4.436.438 6.659.342 1.656-.064 3.313-.246 4.959-.524 1.176-.203 2.341-.513 3.474-.909.353-.128.705-.267 1.047-.416.31-.129.62-.278.92-.428.684-.363 1.336-.78 1.956-1.261.523-.417 1.004-.887 1.432-1.4.406-.492.769-1.026 1.069-1.604.288-.545.523-1.122.705-1.71v-14.322l2.544-2.544-3.078-3.079-1.753 1.753-7.568-3.024 1.069-5.345-2.896-1.165-1.892 2.843h-5.986l-1.892-2.843-2.896 1.165 1.069 5.345-7.568 3.024-1.753-1.753-3.078 3.079 2.544 2.544z" fill="url(#b)" fill-rule="evenodd"/></svg>